<?xml version="1.0" standalone="no"?>
<!DOCTYPE svg PUBLIC "-//W3C//DTD SVG 20010904//EN"
 "http://www.w3.org/TR/2001/REC-SVG-20010904/DTD/svg10.dtd">
<svg version="1.0" xmlns="http://www.w3.org/2000/svg"
 width="1120.000000pt" height="1120.000000pt" viewBox="0 0 1120.000000 1120.000000"
 preserveAspectRatio="xMidYMid meet">
<metadata>
Created by potrace 1.11, written by Peter Selinger 2001-2013
</metadata>
<g transform="translate(0.000000,1120.000000) scale(0.100000,-0.100000)"
fill="#000000" stroke="none">
<path d="M12 8798 l3 -1283 45 0 c25 -1 48 4 52 10 5 7 8 7 8 -1 0 -6 17 -9
43 -7 23 2 47 4 52 3 6 0 35 -1 65 -3 30 -1 61 1 68 6 6 5 12 6 12 1 0 -11
200 -12 217 -1 6 4 14 3 18 -2 3 -5 15 -7 28 -5 12 3 27 5 32 5 92 -6 145 -5
145 4 0 6 3 7 8 0 8 -12 231 -14 249 -2 6 4 14 4 17 -1 3 -5 24 -7 48 -5 24 2
48 4 53 3 6 0 35 -1 65 -3 30 -1 61 1 68 6 6 5 12 6 12 1 0 -11 200 -12 217
-1 6 4 14 3 18 -2 3 -5 15 -7 28 -5 12 3 27 5 32 5 92 -6 145 -5 145 4 0 6 3
7 8 0 8 -11 246 -14 257 -3 4 4 7 151 7 327 l0 321 47 0 c25 1 2088 1 4583 1
l4538 1 0 954 0 954 -5595 0 -5595 0 2 -1282z"/>
<path d="M10 5594 l0 -955 42 1 c24 0 51 0 61 0 14 -1 170 -1 235 -1 9 0 121
0 247 0 127 0 237 0 245 0 8 0 60 0 115 0 55 0 107 0 115 0 8 0 62 0 120 0 58
0 112 0 120 0 8 0 119 0 245 0 127 0 237 0 245 0 8 0 60 0 115 0 55 0 107 0
115 0 8 0 62 0 120 0 58 0 110 0 115 0 6 0 93 0 195 0 102 0 194 0 205 0 11 0
67 0 125 0 58 0 112 0 120 0 8 0 119 0 245 0 127 0 237 0 245 0 8 0 60 0 115
0 55 0 107 0 115 0 8 0 62 0 120 0 58 0 112 0 120 0 8 0 119 0 245 0 127 0
237 0 245 0 8 0 60 0 115 0 55 0 107 0 115 0 8 0 62 0 120 0 58 0 112 0 120 0
8 0 119 0 245 0 127 0 237 0 245 0 8 0 60 0 115 0 55 0 107 0 115 0 8 0 62 0
120 0 58 0 112 0 120 0 8 0 119 0 245 0 127 0 237 0 245 0 8 0 80 0 160 0 80
0 152 0 160 0 8 0 60 0 115 0 55 0 107 0 115 0 8 0 62 0 120 0 58 0 112 0 120
0 8 0 119 0 245 0 127 0 237 0 245 0 14 0 252 0 275 0 6 0 75 0 155 0 80 0
152 0 160 0 8 0 80 0 160 0 80 0 152 0 160 0 8 0 80 0 160 0 80 0 152 0 160 0
18 0 246 0 275 0 11 0 67 0 125 0 58 0 112 0 120 0 8 0 119 0 245 0 127 0 237
0 245 0 8 0 60 0 115 0 55 0 107 0 115 0 8 0 62 0 120 0 58 0 112 0 120 0 8 0
119 0 245 0 127 0 237 0 245 0 8 0 60 0 115 0 55 0 107 0 115 0 8 0 59 1 113
1 l97 0 0 954 0 954 -5595 0 -5595 0 0 -954z"/>
<path d="M35 3680 c-4 -6 -11 -8 -16 -5 -5 4 -9 -489 -9 -1279 l0 -1286 5595
0 5595 0 -2 953 -3 952 -4560 2 c-2508 1 -4570 2 -4582 2 l-22 1 2 329 c2 327
2 330 -19 334 -11 2 -31 0 -43 -5 -13 -4 -20 -4 -16 1 3 6 -6 6 -23 2 -16 -5
-36 -5 -45 0 -10 6 -18 5 -22 -1 -4 -6 -13 -7 -24 -1 -10 6 -23 6 -31 1 -9 -5
-19 -5 -26 1 -8 7 -14 6 -19 -1 -4 -7 -12 -7 -25 0 -12 6 -21 7 -25 0 -4 -6
-15 -6 -30 0 -16 6 -25 6 -25 0 0 -6 -11 -5 -27 1 -16 6 -30 10 -33 9 -3 -2
-15 -6 -28 -11 -13 -5 -21 -6 -19 -1 6 8 -95 8 -109 -1 -6 -3 -16 -2 -24 3 -8
5 -22 5 -32 -1 -12 -6 -18 -6 -18 0 0 7 -9 7 -25 1 -14 -5 -25 -6 -25 -2 0 4
-18 7 -40 7 -22 0 -40 -3 -40 -7 0 -4 -11 -3 -25 2 -15 6 -26 6 -30 0 -4 -6
-14 -7 -23 -2 -21 9 -43 9 -59 -1 -6 -4 -14 -3 -18 2 -3 6 -15 7 -28 2 -12 -5
-32 -5 -44 0 -13 5 -23 5 -23 0 0 -9 -48 -6 -57 3 -3 3 -14 1 -24 -4 -12 -7
-20 -7 -24 0 -4 7 -12 7 -25 0 -10 -6 -21 -6 -24 -2 -6 9 -59 7 -75 -3 -6 -3
-11 -2 -11 4 0 7 -8 7 -25 1 -13 -5 -26 -6 -29 -2 -5 9 -59 8 -74 -2 -6 -3
-13 -2 -17 3 -4 7 -15 7 -30 1 -16 -6 -25 -6 -25 0 0 6 -9 6 -25 0 -17 -7 -25
-6 -25 1 0 8 -4 8 -13 1 -8 -7 -18 -7 -27 -2 -8 5 -21 5 -32 -1 -12 -6 -18 -6
-18 0 0 7 -9 7 -25 1 -14 -5 -25 -6 -25 -2 0 4 -18 7 -40 7 -22 0 -40 -3 -40
-7 0 -4 -11 -3 -25 2 -15 6 -26 6 -30 -1 -4 -5 -11 -7 -16 -3 -17 10 -59 12
-65 3 -3 -5 -13 -5 -23 0 -10 6 -23 6 -31 1 -8 -5 -21 -5 -31 1 -12 6 -20 5
-24 -1z"/>
</g>
</svg>
